<svg width="37" height="37" viewBox="0 0 37 37" fill="none" xmlns="http://www.w3.org/2000/svg">
    <path fill-rule="evenodd" clip-rule="evenodd" d="M18.0513 34.9085C27.3801 34.9085 34.9425 27.3461 34.9425 18.0174C34.9425 8.68865 27.3801 1.12622 18.0513 1.12622C8.72259 1.12622 1.16016 8.68865 1.16016 18.0174C1.16016 27.3461 8.72259 34.9085 18.0513 34.9085ZM13.5364 32.447C14.9621 32.8926 16.4787 33.1328 18.0513 33.1328C19.6135 33.1328 21.1204 32.8958 22.5379 32.4558V28.7608C22.5384 28.1647 22.42 27.5745 22.1898 27.0247C21.9596 26.4749 21.6222 25.9765 21.1972 25.5585C26.159 24.6858 28.2352 21.663 28.2352 18.0666C28.2352 16.3212 27.6545 14.7059 26.5144 13.411C27.1586 11.408 26.4913 9.69615 26.3392 9.30614C26.3318 9.28707 26.3256 9.27117 26.3209 9.25854C24.4206 9.08611 22.45 10.5007 22.0523 10.8034C20.8805 10.4867 19.5503 10.3142 18.0583 10.3142C16.5732 10.3142 15.2466 10.4796 14.0853 10.7928C13.9199 10.6626 11.7944 9.01573 9.74992 9.19872C9.74606 9.20862 9.74129 9.2206 9.73572 9.23459C9.58898 9.60336 8.88585 11.3703 9.57749 13.4215C8.45141 14.713 7.87781 16.3141 7.87781 18.056C7.87781 21.6454 9.93994 24.6647 14.8876 25.5515C14.2965 26.1251 13.8671 26.8641 13.6666 27.691C12.7481 27.9198 10.9358 28.152 10.0068 26.7761C8.72237 24.8793 7.61389 24.1791 6.52652 24.7386C6.28513 25.0171 6.59731 25.2271 7.0412 25.5256C7.43856 25.7928 7.94146 26.131 8.24731 26.6529C8.29418 26.7302 8.33834 26.8638 8.39454 27.034C8.72235 28.0262 9.46004 30.2589 13.5364 29.7813V32.447Z" fill="#6666CA"/>
    </svg>
    